<svg id="Capa_1" data-name="Capa 1" xmlns="http://www.w3.org/2000/svg" viewBox="0 0 9.62 7.98"><defs><style>.cls-1{fill:#fff;}</style></defs><title>Actualizando</title><path class="cls-1" d="M25.06.89l-.12.37h-.16l.4-1.2h.19l.41,1.2h-.17L25.49.89Zm.39-.13L25.34.42c0-.08-.05-.15-.07-.22h0l-.06.22-.12.34Z" transform="translate(-24.78)"/><path class="cls-1" d="M26.54,1.23a.59.59,0,0,1-.25.05.41.41,0,0,1-.42-.44.44.44,0,0,1,.46-.46.6.6,0,0,1,.22,0l0,.12a.4.4,0,0,0-.18,0A.3.3,0,0,0,26,.83a.3.3,0,0,0,.3.33.48.48,0,0,0,.2,0Z" transform="translate(-24.78)"/><path class="cls-1" d="M26.94.15V.4h.22V.52h-.22V1c0,.1,0,.16.11.16h.09v.12l-.14,0a.21.21,0,0,1-.17-.07A.32.32,0,0,1,26.78,1V.52h-.13V.4h.13V.2Z" transform="translate(-24.78)"/><path class="cls-1" d="M28.06,1v.23h-.13V1.12h0a.32.32,0,0,1-.28.16c-.14,0-.3-.07-.3-.37V.4h.16V.88c0,.16.05.27.19.27A.24.24,0,0,0,27.89,1a.19.19,0,0,0,0-.08V.4h.16Z" transform="translate(-24.78)"/><path class="cls-1" d="M28.79,1.26V1.15h0a.3.3,0,0,1-.26.13A.24.24,0,0,1,28.25,1c0-.21.18-.33.52-.33h0a.18.18,0,0,0-.2-.2.4.4,0,0,0-.22.06l0-.1a.51.51,0,0,1,.28-.08c.27,0,.33.18.33.35v.33a1.27,1.27,0,0,0,0,.2Zm0-.44c-.17,0-.36,0-.36.2a.13.13,0,0,0,.14.15A.21.21,0,0,0,28.76,1a.07.07,0,0,0,0-.05Z" transform="translate(-24.78)"/><path class="cls-1" d="M29.17,0h.16V1.26h-.16Z" transform="translate(-24.78)"/><path class="cls-1" d="M29.77.16a.1.1,0,1,1-.2,0,.1.1,0,1,1,.2,0Zm-.18,1.1V.4h.16v.86Z" transform="translate(-24.78)"/><path class="cls-1" d="M29.91,1.17l.39-.5.11-.14H30V.4h.65V.5l-.38.5-.11.13h.5v.12h-.7Z" transform="translate(-24.78)"/><path class="cls-1" d="M31.25,1.26l0-.11h0a.32.32,0,0,1-.26.13A.25.25,0,0,1,30.7,1c0-.21.19-.33.52-.33h0A.18.18,0,0,0,31,.5a.4.4,0,0,0-.22.06l0-.1a.55.55,0,0,1,.29-.08c.26,0,.32.18.32.35v.33a1.23,1.23,0,0,0,0,.2Zm0-.44c-.17,0-.36,0-.36.2a.14.14,0,0,0,.15.15.2.2,0,0,0,.2-.15.07.07,0,0,0,0-.05Z" transform="translate(-24.78)"/><path class="cls-1" d="M31.63.64c0-.09,0-.17,0-.24h.14V.54h0a.32.32,0,0,1,.29-.16c.11,0,.3.07.3.37v.51H32.2V.77c0-.14-.05-.26-.2-.26a.24.24,0,0,0-.21.16s0,0,0,.08v.51h-.15Z" transform="translate(-24.78)"/><path class="cls-1" d="M33.36,0V1.26h-.14V1.11h0a.31.31,0,0,1-.29.17.39.39,0,0,1-.37-.44.42.42,0,0,1,.39-.46.29.29,0,0,1,.26.13h0V0ZM33.2.75a.13.13,0,0,0,0-.06A.23.23,0,0,0,33,.51c-.16,0-.26.14-.26.33s.08.32.25.32A.23.23,0,0,0,33.19,1a.15.15,0,0,0,0-.07Z" transform="translate(-24.78)"/><path class="cls-1" d="M34.4.83a.42.42,0,0,1-.43.45.41.41,0,0,1-.42-.44A.42.42,0,0,1,34,.38.41.41,0,0,1,34.4.83Zm-.69,0c0,.19.11.33.26.33a.3.3,0,0,0,.27-.33c0-.15-.08-.33-.26-.33S33.71.67,33.71.83Z" transform="translate(-24.78)"/><polygon class="cls-1" points="7.79 5.98 7.79 7.34 1.85 7.34 1.85 5.98 1.27 5.98 1.27 7.98 8.37 7.98 8.37 5.98 7.79 5.98"/><polygon class="cls-1" points="5.49 2.35 4.15 2.35 4.15 4.85 2.69 4.85 4.82 6.98 6.95 4.85 5.49 4.85 5.49 2.35"/></svg>