<svg id="Capa_1" data-name="Capa 1" xmlns="http://www.w3.org/2000/svg" viewBox="0 0 7.28 8.72"><defs><style>.cls-1{fill:#fff;}</style></defs><title>Actualizar</title><path class="cls-1" d="M.28.89l-.12.37H0L.41.06H.59L1,1.26H.84L.71.89ZM.68.76.56.42C.53.34.52.27.5.2h0A.9.9,0,0,1,.43.42L.32.76Z"/><path class="cls-1" d="M1.77,1.23a.68.68,0,0,1-.25.05A.41.41,0,0,1,1.09.84.44.44,0,0,1,1.55.38a.51.51,0,0,1,.22,0l0,.12a.34.34,0,0,0-.18,0,.29.29,0,0,0-.3.32.3.3,0,0,0,.3.33.43.43,0,0,0,.19,0Z"/><path class="cls-1" d="M2.16.15V.4h.22V.52H2.16V1c0,.1,0,.16.12.16h.09v.12l-.14,0a.19.19,0,0,1-.17-.07S2,1.09,2,1V.52H1.87V.4H2V.2Z"/><path class="cls-1" d="M3.28,1a1.55,1.55,0,0,0,0,.23H3.15V1.12h0a.32.32,0,0,1-.29.16c-.13,0-.29-.07-.29-.37V.4h.15V.88c0,.16,0,.27.19.27A.22.22,0,0,0,3.11,1a.19.19,0,0,0,0-.08V.4h.16Z"/><path class="cls-1" d="M4,1.26l0-.11H4a.32.32,0,0,1-.26.13A.25.25,0,0,1,3.47,1c0-.21.19-.33.52-.33H4a.18.18,0,0,0-.2-.2.4.4,0,0,0-.22.06l0-.1A.55.55,0,0,1,3.82.38c.26,0,.32.18.32.35v.33a1.23,1.23,0,0,0,0,.2ZM4,.82c-.17,0-.36,0-.36.2a.14.14,0,0,0,.15.15A.2.2,0,0,0,4,1,.07.07,0,0,0,4,1Z"/><path class="cls-1" d="M4.4,0h.15V1.26H4.4Z"/><path class="cls-1" d="M5,.16a.1.1,0,0,1-.1.1A.1.1,0,0,1,4.8.16a.09.09,0,0,1,.09-.1A.09.09,0,0,1,5,.16Zm-.17,1.1V.4H5v.86Z"/><path class="cls-1" d="M5.13,1.17l.39-.5L5.64.53H5.17V.4h.66V.5L5.44,1a.69.69,0,0,1-.11.13h.5v.12h-.7Z"/><path class="cls-1" d="M6.47,1.26V1.15h0a.32.32,0,0,1-.26.13A.24.24,0,0,1,5.93,1c0-.21.18-.33.51-.33h0A.18.18,0,0,0,6.25.5.44.44,0,0,0,6,.56l0-.1A.49.49,0,0,1,6.27.38.31.31,0,0,1,6.6.73v.33a1.27,1.27,0,0,0,0,.2Zm0-.44c-.17,0-.37,0-.37.2a.14.14,0,0,0,.15.15A.22.22,0,0,0,6.44,1a.43.43,0,0,0,0-.05Z"/><path class="cls-1" d="M6.85.67a2.26,2.26,0,0,0,0-.27H7V.57H7A.28.28,0,0,1,7.23.38h0V.54H7.22A.22.22,0,0,0,7,.73v.53H6.85Z"/><path class="cls-1" d="M3.63,7.59H3.38a2.19,2.19,0,0,1-.52-.12,2.36,2.36,0,0,1-.37-4.3l0-.46A2.79,2.79,0,0,0,2.9,7.92,2.4,2.4,0,0,0,3.38,8h.25v.7l.91-.91L3.63,6.9Z"/><path class="cls-1" d="M4.26,2.51a2.32,2.32,0,0,0-.38-.06H3.63V1.77l-.91.91L3,2.94V3H3l.64.64V2.87h.21A1.79,1.79,0,0,1,4.3,3,2.35,2.35,0,0,1,6,5.44a2.38,2.38,0,0,1-1.3,1.91l0,.45a2.79,2.79,0,0,0-.46-5.29Z"/></svg>