<svg id="Capa_1" data-name="Capa 1" xmlns="http://www.w3.org/2000/svg" viewBox="0 0 7.32 7.32"><defs><style>.cls-1{fill:#fff;}</style></defs><title>Engrane</title><path class="cls-1" d="M7.24,4.39l0-1.29-.92,0A2.61,2.61,0,0,0,6,2.25l.66-.64L5.81.67l-.67.64A2.57,2.57,0,0,0,4.33,1l0-.92L3.06,0,3,.92a2.8,2.8,0,0,0-.83.32L1.57.57l-.94.9.64.66A2.63,2.63,0,0,0,.91,3L0,2.92l0,1.3.92,0a2.61,2.61,0,0,0,.32.83L.53,5.7l.9.94L2.09,6a3,3,0,0,0,.81.36l0,.92,1.3,0,0-.92A2.61,2.61,0,0,0,5,6.08l.63.66.94-.89L6,5.18a2.82,2.82,0,0,0,.36-.81Zm-3.65.53A1.26,1.26,0,1,1,4.88,3.69,1.27,1.27,0,0,1,3.59,4.92Z" transform="translate(0.04)"/></svg>