<svg id="Layer_1" data-name="Layer 1" xmlns="http://www.w3.org/2000/svg" viewBox="0 0 884.07 706.35"><title>SOTECAMP_N</title><path d="M933.74,89.05c-20.91-29.8-119.62-33.57-240.66-14.86-77.09-66.85-165-91.74-229-55.54-44.59,25.18-71.26,75.53-75.74,142.45-32.43,14.22-89.11,41-182,89-7.47,3.84-25.25,13.3-26.24,27.45C179,293,198.31,306,209.9,313.57c29,19.13,58.32,24.89,77.09,29.09-44.45,45.52-89.89,105.61-102.2,169.69-3.41,18.06-10.24,56.33,11.09,86.05,4.27,5.9,26,34.49,93.38,39.4,70.76,5.12,145-19.2,213.07-53.55,2.35,21.26,8,36.91,16.57,51.7,8.75,15,16.43,28.16,31,32.93,34.14,11.31,79.65-32.15,120.33-81.93a178.5,178.5,0,0,0,43,5.55c23.54,0,45.8-5.41,65.71-16.64,46.65-26.38,73.75-80.43,76.17-152.26,1-28.45-2-58.46-8.53-88.9C907.71,235.06,960.84,127.67,933.74,89.05ZM233.94,559.92a224.88,224.88,0,0,1,2.77-26.31c.92-5.19,5.62-21.69,17.28-45.59,1.71.36,3.63.78,5.69,1.21,11.88,2.56,23.33,5.69,32.64,8.46-6.12,5.76-12.73,12.3-19.77,19.7C256.34,534.39,233.94,559.92,233.94,559.92Zm48.29,4.48c11.17-8,25-16.93,41.68-27.31,1.28,5.48,2.42,11.09,3.27,16.57.36,2.06.64,4.12.85,6.12C314.16,561.63,298.73,563.34,282.23,564.4Zm46.3-117.34a421.58,421.58,0,0,0-42.39-13.87c5.26-7.75,11.09-15.79,17.5-24l80.22,15.29c-16.07,11-29.51,21-40,29.09C338.91,451.33,333.72,449.12,328.53,447.06Zm63.93,100.28-.21-3.41c-.64-9-3.63-20.55-9.67-42.46,3.84-2.28,7.68-4.62,11.66-7,9.46-5.69,18.28-10.88,26.46-15.5a354.41,354.41,0,0,1,4,58.53C411.95,541.93,400.93,545.13,392.46,547.34Zm117.06-82.07c-1.78,12.3-3.27,23.61-4.48,34.14-10.31,6.4-20.41,11.95-30.3,16.93-.07-6.69-.28-13.37-.57-19.77a386,386,0,0,0-4.76-43.31c20.84-9.89,34.78-14.58,44.45-16.43C512.37,446.21,510.95,455.67,509.52,465.27Zm-38.69-93q-16.32,8.53-31.08,17.07c-19.77-6-55.4-16.71-94.8-27.88,7.33-7.54,15.08-15.22,23.33-22.9h.07c26.17-.36,56.11,0,85.56,1.92s54.76,3.56,76.66,5.69A545.14,545.14,0,0,0,470.83,372.24Zm343,64.36v.21c-5.76,55.47-28.8,97.08-65.86,118-18.85,10.67-40.32,15.43-63.58,14.44,13.58-17.42,26.38-35,37.69-50.56,17.35-24,52.56-72.68,89.75-129.43a462.37,462.37,0,0,0-18.63-91c-.92-3-1.85-6-2.84-8.89-2.35,3-4.62,5.76-6.83,8.46-82.5-9.6-169.19-16.64-259.79-20.2-26.24-1-52.27-1.71-77.87-2.13,4.76-3.34,9.6-6.76,14.51-10.1,0,0,114.86-77.73,256.74-115.35-20.77-27-44-50.07-68.34-68.06C570.4,97,485.91,120.77,409,152.28c-4.69,1.92-10.53,4.41-17.57,7.47C396.8,103.56,420,61.6,457.32,40.41c17.57-9.89,37.12-14.58,57.89-14.58,31.08,0,64.72,10.53,98.07,29.94a272.37,272.37,0,0,1,41.46,25c24.82,18,48.5,40.75,69.77,67.28A432.74,432.74,0,0,1,786.1,252.2c4,9.53,7.54,19.13,10.74,28.66,11.59,34.42,18.21,68.7,19.63,101.27A269.22,269.22,0,0,1,813.84,436.61Zm4.76-187.47A508,508,0,0,0,755.38,141c37.48-7.61,76.24-11.88,114.78-10.88A438.36,438.36,0,0,1,834,222.33C829,231.86,823.86,240.75,818.6,249.14Z" transform="translate(-56.93 -2.02)"/><path d="M96.18,559.09c20.24-14.57,58.89,4.49,86.31,42.58-13.7-19-22-39.24-24.35-56.49s1.22-31.58,11.35-38.87c-20.24,14.57-58.89-4.49-86.31-42.58C110.61,501.82,116.43,544.52,96.18,559.09Z" transform="translate(-56.93 -2.02)"/><path d="M151.88,681.21c11.72-8.44,34.9,3.73,51.77,27.17-8.43-11.71-13.69-24-15.38-34.48s.18-19,6-23.24c-11.72,8.44-34.9-3.73-51.77-27.17C159.42,646.93,163.6,672.77,151.88,681.21Z" transform="translate(-56.93 -2.02)"/><path d="M63.1,620.41c7.74-5.58,23.07,2.46,34.22,18-5.57-7.74-9-15.89-10.16-22.79s.12-12.57,4-15.36c-7.74,5.58-23.07-2.46-34.22-18C68.08,597.75,70.85,614.83,63.1,620.41Z" transform="translate(-56.93 -2.02)"/></svg>